<svg xmlns="http://www.w3.org/2000/svg" viewBox="0 0 720 380" width="720" height="380" role="img" aria-label="% apurado: soma dos estados x arquivo nacional do TSE" style="font-family:system-ui,-apple-system,'Segoe UI',Roboto,sans-serif">
<title>% apurado: soma dos estados x arquivo nacional do TSE</title>
<line x1="52.0" y1="14.0" x2="72.0" y2="14.0" stroke="#2a78d6" stroke-width="2.5" opacity="1"/>
<text x="78.0" y="18.0" font-size="12" fill="#7d7c75" text-anchor="start" font-weight="400">soma dos 27 estados + exterior</text>
<line x1="284.0" y1="14.0" x2="304.0" y2="14.0" stroke="#c8692e" stroke-width="2.5" opacity="1"/>
<text x="310.0" y="18.0" font-size="12" fill="#7d7c75" text-anchor="start" font-weight="400">arquivo nacional do TSE (o que os sites mostram)</text>
<line x1="52.0" y1="318.9" x2="610.0" y2="318.9" stroke="#cfcdc6" stroke-width="1" opacity="1"/>
<text x="44.0" y="322.9" font-size="11" fill="#7d7c75" text-anchor="end" font-weight="400">20%</text>
<line x1="52.0" y1="284.8" x2="610.0" y2="284.8" stroke="#cfcdc6" stroke-width="1" opacity="1"/>
<text x="44.0" y="288.8" font-size="11" fill="#7d7c75" text-anchor="end" font-weight="400">30%</text>
<line x1="52.0" y1="250.7" x2="610.0" y2="250.7" stroke="#cfcdc6" stroke-width="1" opacity="1"/>
<text x="44.0" y="254.7" font-size="11" fill="#7d7c75" text-anchor="end" font-weight="400">40%</text>
<line x1="52.0" y1="216.6" x2="610.0" y2="216.6" stroke="#cfcdc6" stroke-width="1" opacity="1"/>
<text x="44.0" y="220.6" font-size="11" fill="#7d7c75" text-anchor="end" font-weight="400">50%</text>
<line x1="52.0" y1="182.5" x2="610.0" y2="182.5" stroke="#cfcdc6" stroke-width="1" opacity="1"/>
<text x="44.0" y="186.5" font-size="11" fill="#7d7c75" text-anchor="end" font-weight="400">60%</text>
<line x1="52.0" y1="148.4" x2="610.0" y2="148.4" stroke="#cfcdc6" stroke-width="1" opacity="1"/>
<text x="44.0" y="152.4" font-size="11" fill="#7d7c75" text-anchor="end" font-weight="400">70%</text>
<line x1="52.0" y1="114.2" x2="610.0" y2="114.2" stroke="#cfcdc6" stroke-width="1" opacity="1"/>
<text x="44.0" y="118.2" font-size="11" fill="#7d7c75" text-anchor="end" font-weight="400">80%</text>
<line x1="52.0" y1="80.1" x2="610.0" y2="80.1" stroke="#cfcdc6" stroke-width="1" opacity="1"/>
<text x="44.0" y="84.1" font-size="11" fill="#7d7c75" text-anchor="end" font-weight="400">90%</text>
<line x1="52.0" y1="46.0" x2="610.0" y2="46.0" stroke="#cfcdc6" stroke-width="1" opacity="1"/>
<text x="44.0" y="50.0" font-size="11" fill="#7d7c75" text-anchor="end" font-weight="400">100%</text>
<text x="52.0" y="354.0" font-size="11" fill="#7d7c75" text-anchor="middle" font-weight="400">18:18</text>
<text x="153.5" y="354.0" font-size="11" fill="#7d7c75" text-anchor="middle" font-weight="400">19:14</text>
<text x="242.2" y="354.0" font-size="11" fill="#7d7c75" text-anchor="middle" font-weight="400">20:06</text>
<line x1="52.0" y1="336.0" x2="610.0" y2="336.0" stroke="#7d7c75" stroke-width="1" opacity="0.5"/>
<polyline points="52.0,316.2 64.7,303.1 77.4,284.2 90.0,282.3 102.7,261.3 115.4,239.9 128.1,226.4 140.8,207.1 153.5,148.9 166.1,136.1 178.8,106.1 191.5,102.5 204.2,100.5 216.9,97.4 229.5,97.3 242.2,95.8 254.9,95.7 267.6,90.0 280.3,83.3 293.0,80.1 305.6,78.5 318.3,78.1 331.0,76.8 343.7,75.5 356.4,74.6 369.0,73.5 381.7,72.1 394.4,70.8 407.1,69.3 419.8,66.4 432.5,61.8 445.1,56.8 457.8,52.1 470.5,51.0 483.2,50.4 495.9,49.9 508.5,49.6 521.2,49.1 533.9,48.8 546.6,48.6 559.3,48.4 572.0,48.2 584.6,47.9 597.3,47.7 610.0,47.6" fill="none" stroke="#2a78d6" stroke-width="2.4" stroke-linejoin="round" stroke-linecap="round"/>
<circle cx="610.0" cy="47.6" r="4" fill="#2a78d6"/>
<polyline points="52.0,320.5 64.7,312.2 77.4,303.7 90.0,292.0 102.7,278.4 115.4,262.3 128.1,245.4 140.8,225.9 153.5,166.1 166.1,166.1 178.8,166.1 191.5,166.1 204.2,166.1 216.9,166.1 229.5,166.1 242.2,97.3 254.9,97.3 267.6,97.3 280.3,82.0 293.0,79.6 305.6,78.5 318.3,77.7 331.0,76.5 343.7,75.3 356.4,74.3 369.0,73.0 381.7,71.9 394.4,70.5 407.1,68.8 419.8,64.7 432.5,60.4 445.1,55.4 457.8,51.6 470.5,50.6 483.2,50.2 495.9,49.8 508.5,49.5 521.2,49.1 533.9,48.8 546.6,48.5 559.3,48.2 572.0,48.1 584.6,47.9 597.3,47.7 610.0,47.5" fill="none" stroke="#c8692e" stroke-width="2.4" stroke-linejoin="round" stroke-linecap="round"/>
<circle cx="610.0" cy="47.5" r="4" fill="#c8692e"/>
<text x="618.0" y="51.5" font-size="12" fill="#c8692e" text-anchor="start" font-weight="700">99,6%</text>
<text x="618.0" y="65.5" font-size="12" fill="#2a78d6" text-anchor="start" font-weight="700">99,5%</text>
<text x="331.0" y="372.0" font-size="11" fill="#7d7c75" text-anchor="middle" font-weight="400">coleta</text>
<text x="12.0" y="32.0" font-size="11" fill="#7d7c75" text-anchor="start" font-weight="400">% das seções apuradas</text>
</svg>