<svg xmlns="http://www.w3.org/2000/svg" viewBox="0 0 720 736" width="720" height="736" role="img" aria-label="Saldo de votos de cada atualização (Flávio − Lula)" style="font-family:system-ui,-apple-system,'Segoe UI',Roboto,sans-serif">
<title>Saldo de votos de cada atualização (Flávio − Lula)</title>
<text x="162.0" y="42.0" font-size="12" fill="#7d7c75" text-anchor="end" font-weight="400">lote das 18:22</text>
<rect x="343.0" y="30.0" width="116.3" height="16.0" fill="#2a78d6" rx="3"/>
<text x="465.2" y="42.0" font-size="11" fill="#7d7c75" text-anchor="start" font-weight="600">+318 mil</text>
<text x="162.0" y="66.0" font-size="12" fill="#7d7c75" text-anchor="end" font-weight="400">lote das 18:27</text>
<rect x="343.0" y="54.0" width="185.5" height="16.0" fill="#2a78d6" rx="3"/>
<text x="534.5" y="66.0" font-size="11" fill="#7d7c75" text-anchor="start" font-weight="600">+507 mil</text>
<text x="162.0" y="90.0" font-size="12" fill="#7d7c75" text-anchor="end" font-weight="400">lote das 18:28</text>
<rect x="328.0" y="78.0" width="15.0" height="16.0" fill="#e34948" rx="3"/>
<text x="322.0" y="90.0" font-size="11" fill="#7d7c75" text-anchor="end" font-weight="600">−41 mil</text>
<text x="162.0" y="114.0" font-size="12" fill="#7d7c75" text-anchor="end" font-weight="400">lote das 18:35</text>
<rect x="343.0" y="102.0" width="239.7" height="16.0" fill="#2a78d6" rx="3"/>
<text x="588.6" y="114.0" font-size="11" fill="#7d7c75" text-anchor="start" font-weight="600">+655 mil</text>
<text x="162.0" y="138.0" font-size="12" fill="#7d7c75" text-anchor="end" font-weight="400">lote das 18:41</text>
<rect x="343.0" y="126.0" width="200.5" height="16.0" fill="#2a78d6" rx="3"/>
<text x="549.5" y="138.0" font-size="11" fill="#7d7c75" text-anchor="start" font-weight="600">+548 mil</text>
<text x="162.0" y="162.0" font-size="12" fill="#7d7c75" text-anchor="end" font-weight="400">lote das 18:46</text>
<rect x="343.0" y="150.0" width="72.2" height="16.0" fill="#2a78d6" rx="3"/>
<text x="421.2" y="162.0" font-size="11" fill="#7d7c75" text-anchor="start" font-weight="600">+198 mil</text>
<text x="162.0" y="186.0" font-size="12" fill="#7d7c75" text-anchor="end" font-weight="400">lote das 18:52</text>
<rect x="343.0" y="174.0" width="143.9" height="16.0" fill="#2a78d6" rx="3"/>
<text x="492.8" y="186.0" font-size="11" fill="#7d7c75" text-anchor="start" font-weight="600">+393 mil</text>
<text x="162.0" y="210.0" font-size="12" fill="#7d7c75" text-anchor="end" font-weight="400">lote das 19:14</text>
<rect x="343.0" y="198.0" width="157.6" height="16.0" fill="#2a78d6" rx="3"/>
<text x="506.6" y="210.0" font-size="11" fill="#7d7c75" text-anchor="start" font-weight="600">+431 mil</text>
<text x="162.0" y="234.0" font-size="12" fill="#7d7c75" text-anchor="end" font-weight="400">lote das 19:28</text>
<rect x="301.0" y="222.0" width="42.0" height="16.0" fill="#e34948" rx="3"/>
<text x="295.0" y="234.0" font-size="11" fill="#7d7c75" text-anchor="end" font-weight="600">−115 mil</text>
<text x="162.0" y="258.0" font-size="12" fill="#7d7c75" text-anchor="end" font-weight="400">lote das 19:30</text>
<rect x="273.7" y="246.0" width="69.3" height="16.0" fill="#e34948" rx="3"/>
<text x="267.7" y="258.0" font-size="11" fill="#7d7c75" text-anchor="end" font-weight="600">−189 mil</text>
<text x="162.0" y="282.0" font-size="12" fill="#7d7c75" text-anchor="end" font-weight="400">lote das 19:34</text>
<rect x="270.4" y="270.0" width="72.6" height="16.0" fill="#e34948" rx="3"/>
<text x="264.4" y="282.0" font-size="11" fill="#7d7c75" text-anchor="end" font-weight="600">−198 mil</text>
<text x="162.0" y="306.0" font-size="12" fill="#7d7c75" text-anchor="end" font-weight="400">lote das 19:37</text>
<rect x="320.0" y="294.0" width="23.0" height="16.0" fill="#e34948" rx="3"/>
<text x="314.0" y="306.0" font-size="11" fill="#7d7c75" text-anchor="end" font-weight="600">−63 mil</text>
<text x="162.0" y="330.0" font-size="12" fill="#7d7c75" text-anchor="end" font-weight="400">lote das 19:41</text>
<rect x="343.0" y="318.0" width="32.4" height="16.0" fill="#2a78d6" rx="3"/>
<text x="381.4" y="330.0" font-size="11" fill="#7d7c75" text-anchor="start" font-weight="600">+89 mil</text>
<text x="162.0" y="354.0" font-size="12" fill="#7d7c75" text-anchor="end" font-weight="400">lote das 20:06</text>
<rect x="336.1" y="342.0" width="6.9" height="16.0" fill="#e34948" rx="3"/>
<text x="330.1" y="354.0" font-size="11" fill="#7d7c75" text-anchor="end" font-weight="600">−19 mil</text>
<text x="162.0" y="378.0" font-size="12" fill="#7d7c75" text-anchor="end" font-weight="400">lote das 20:10</text>
<rect x="279.7" y="366.0" width="63.3" height="16.0" fill="#e34948" rx="3"/>
<text x="273.7" y="378.0" font-size="11" fill="#7d7c75" text-anchor="end" font-weight="600">−173 mil</text>
<text x="162.0" y="402.0" font-size="12" fill="#7d7c75" text-anchor="end" font-weight="400">lote das 20:14</text>
<rect x="244.4" y="390.0" width="98.6" height="16.0" fill="#e34948" rx="3"/>
<text x="238.4" y="402.0" font-size="11" fill="#7d7c75" text-anchor="end" font-weight="600">−269 mil</text>
<text x="162.0" y="426.0" font-size="12" fill="#7d7c75" text-anchor="end" font-weight="400">lote das 20:17</text>
<rect x="285.8" y="414.0" width="57.1" height="16.0" fill="#e34948" rx="3"/>
<text x="279.8" y="426.0" font-size="11" fill="#7d7c75" text-anchor="end" font-weight="600">−156 mil</text>
<text x="162.0" y="450.0" font-size="12" fill="#7d7c75" text-anchor="end" font-weight="400">lote das 20:21</text>
<rect x="329.4" y="438.0" width="13.6" height="16.0" fill="#e34948" rx="3"/>
<text x="323.4" y="450.0" font-size="11" fill="#7d7c75" text-anchor="end" font-weight="600">−37 mil</text>
<text x="162.0" y="474.0" font-size="12" fill="#7d7c75" text-anchor="end" font-weight="400">lote das 20:26</text>
<rect x="323.4" y="462.0" width="19.6" height="16.0" fill="#e34948" rx="3"/>
<text x="317.4" y="474.0" font-size="11" fill="#7d7c75" text-anchor="end" font-weight="600">−54 mil</text>
<text x="162.0" y="498.0" font-size="12" fill="#7d7c75" text-anchor="end" font-weight="400">lote das 20:30</text>
<rect x="324.8" y="486.0" width="18.2" height="16.0" fill="#e34948" rx="3"/>
<text x="318.8" y="498.0" font-size="11" fill="#7d7c75" text-anchor="end" font-weight="600">−50 mil</text>
<text x="162.0" y="522.0" font-size="12" fill="#7d7c75" text-anchor="end" font-weight="400">lote das 20:33</text>
<rect x="327.9" y="510.0" width="15.1" height="16.0" fill="#e34948" rx="3"/>
<text x="321.9" y="522.0" font-size="11" fill="#7d7c75" text-anchor="end" font-weight="600">−41 mil</text>
<text x="162.0" y="546.0" font-size="12" fill="#7d7c75" text-anchor="end" font-weight="400">lote das 20:37</text>
<rect x="324.5" y="534.0" width="18.4" height="16.0" fill="#e34948" rx="3"/>
<text x="318.5" y="546.0" font-size="11" fill="#7d7c75" text-anchor="end" font-weight="600">−50 mil</text>
<text x="162.0" y="570.0" font-size="12" fill="#7d7c75" text-anchor="end" font-weight="400">lote das 20:40</text>
<rect x="317.7" y="558.0" width="25.3" height="16.0" fill="#e34948" rx="3"/>
<text x="311.7" y="570.0" font-size="11" fill="#7d7c75" text-anchor="end" font-weight="600">−69 mil</text>
<text x="162.0" y="594.0" font-size="12" fill="#7d7c75" text-anchor="end" font-weight="400">lote das 20:44</text>
<rect x="321.9" y="582.0" width="21.0" height="16.0" fill="#e34948" rx="3"/>
<text x="315.9" y="594.0" font-size="11" fill="#7d7c75" text-anchor="end" font-weight="600">−58 mil</text>
<text x="162.0" y="618.0" font-size="12" fill="#7d7c75" text-anchor="end" font-weight="400">lote das 20:47</text>
<rect x="318.5" y="606.0" width="24.5" height="16.0" fill="#e34948" rx="3"/>
<text x="312.5" y="618.0" font-size="11" fill="#7d7c75" text-anchor="end" font-weight="600">−67 mil</text>
<text x="162.0" y="642.0" font-size="12" fill="#7d7c75" text-anchor="end" font-weight="400">lote das 20:51</text>
<rect x="275.4" y="630.0" width="67.6" height="16.0" fill="#e34948" rx="3"/>
<text x="269.4" y="642.0" font-size="11" fill="#7d7c75" text-anchor="end" font-weight="600">−185 mil</text>
<text x="162.0" y="666.0" font-size="12" fill="#7d7c75" text-anchor="end" font-weight="400">lote das 20:54</text>
<rect x="265.8" y="654.0" width="77.2" height="16.0" fill="#e34948" rx="3"/>
<text x="259.8" y="666.0" font-size="11" fill="#7d7c75" text-anchor="end" font-weight="600">−211 mil</text>
<text x="162.0" y="690.0" font-size="12" fill="#7d7c75" text-anchor="end" font-weight="400">lote das 20:58</text>
<rect x="251.0" y="678.0" width="92.0" height="16.0" fill="#e34948" rx="3"/>
<text x="245.0" y="690.0" font-size="11" fill="#7d7c75" text-anchor="end" font-weight="600">−251 mil</text>
<line x1="343.0" y1="24.0" x2="343.0" y2="706.0" stroke="#7d7c75" stroke-width="1" opacity="0.6"/>
<text x="400.0" y="730.0" font-size="11" fill="#7d7c75" text-anchor="middle" font-weight="400">mil votos de saldo no lote (azul = mais votos ao Flávio, vermelho = ao Lula)</text>
</svg>