<svg xmlns="http://www.w3.org/2000/svg" viewBox="0 0 720 380" width="720" height="380" role="img" aria-label="Diferença PSL/PL − PT ao longo de quatro apurações" style="font-family:system-ui,-apple-system,'Segoe UI',Roboto,sans-serif">
<title>Diferença PSL/PL − PT ao longo de quatro apurações</title>
<line x1="52.0" y1="14.0" x2="72.0" y2="14.0" stroke="#4a3aa7" stroke-width="2.5" opacity="1"/>
<text x="78.0" y="18.0" font-size="12" fill="#7d7c75" text-anchor="start" font-weight="400">2018 2º turno</text>
<line x1="171.8" y1="14.0" x2="191.8" y2="14.0" stroke="#9a998f" stroke-width="2.5" opacity="1"/>
<text x="197.8" y="18.0" font-size="12" fill="#7d7c75" text-anchor="start" font-weight="400">2022 1º turno</text>
<line x1="291.6" y1="14.0" x2="311.6" y2="14.0" stroke="#1baf7a" stroke-width="2.5" opacity="1"/>
<text x="317.6" y="18.0" font-size="12" fill="#7d7c75" text-anchor="start" font-weight="400">2022 2º turno</text>
<line x1="411.4" y1="14.0" x2="431.4" y2="14.0" stroke="#2a78d6" stroke-width="2.5" opacity="1"/>
<text x="437.4" y="18.0" font-size="12" fill="#7d7c75" text-anchor="start" font-weight="400">2026 1º turno</text>
<line x1="52.0" y1="310.4" x2="610.0" y2="310.4" stroke="#cfcdc6" stroke-width="1" opacity="1"/>
<text x="44.0" y="314.4" font-size="11" fill="#7d7c75" text-anchor="end" font-weight="400">-5</text>
<line x1="52.0" y1="267.8" x2="610.0" y2="267.8" stroke="#cfcdc6" stroke-width="1" opacity="1"/>
<text x="44.0" y="271.8" font-size="11" fill="#7d7c75" text-anchor="end" font-weight="400">0</text>
<line x1="52.0" y1="225.1" x2="610.0" y2="225.1" stroke="#cfcdc6" stroke-width="1" opacity="1"/>
<text x="44.0" y="229.1" font-size="11" fill="#7d7c75" text-anchor="end" font-weight="400">+5</text>
<line x1="52.0" y1="182.5" x2="610.0" y2="182.5" stroke="#cfcdc6" stroke-width="1" opacity="1"/>
<text x="44.0" y="186.5" font-size="11" fill="#7d7c75" text-anchor="end" font-weight="400">+10</text>
<line x1="52.0" y1="139.8" x2="610.0" y2="139.8" stroke="#cfcdc6" stroke-width="1" opacity="1"/>
<text x="44.0" y="143.8" font-size="11" fill="#7d7c75" text-anchor="end" font-weight="400">+15</text>
<line x1="52.0" y1="97.2" x2="610.0" y2="97.2" stroke="#cfcdc6" stroke-width="1" opacity="1"/>
<text x="44.0" y="101.2" font-size="11" fill="#7d7c75" text-anchor="end" font-weight="400">+20</text>
<line x1="52.0" y1="54.5" x2="610.0" y2="54.5" stroke="#cfcdc6" stroke-width="1" opacity="1"/>
<text x="44.0" y="58.5" font-size="11" fill="#7d7c75" text-anchor="end" font-weight="400">+25</text>
<text x="52.0" y="354.0" font-size="11" fill="#7d7c75" text-anchor="middle" font-weight="400">0%</text>
<text x="107.8" y="354.0" font-size="11" fill="#7d7c75" text-anchor="middle" font-weight="400">10%</text>
<text x="163.6" y="354.0" font-size="11" fill="#7d7c75" text-anchor="middle" font-weight="400">20%</text>
<text x="219.4" y="354.0" font-size="11" fill="#7d7c75" text-anchor="middle" font-weight="400">30%</text>
<text x="275.2" y="354.0" font-size="11" fill="#7d7c75" text-anchor="middle" font-weight="400">40%</text>
<text x="331.0" y="354.0" font-size="11" fill="#7d7c75" text-anchor="middle" font-weight="400">50%</text>
<text x="386.8" y="354.0" font-size="11" fill="#7d7c75" text-anchor="middle" font-weight="400">60%</text>
<text x="442.6" y="354.0" font-size="11" fill="#7d7c75" text-anchor="middle" font-weight="400">70%</text>
<text x="498.4" y="354.0" font-size="11" fill="#7d7c75" text-anchor="middle" font-weight="400">80%</text>
<text x="554.2" y="354.0" font-size="11" fill="#7d7c75" text-anchor="middle" font-weight="400">90%</text>
<text x="610.0" y="354.0" font-size="11" fill="#7d7c75" text-anchor="middle" font-weight="400">100%</text>
<line x1="52.0" y1="336.0" x2="610.0" y2="336.0" stroke="#7d7c75" stroke-width="1" opacity="0.5"/>
<line x1="52.0" y1="267.8" x2="610.0" y2="267.8" stroke="#7d7c75" stroke-width="1.2" opacity="1" stroke-dasharray="5 4"/>
<text x="616.0" y="271.8" font-size="11" fill="#7d7c75" text-anchor="start" font-weight="400">empate</text>
<polyline points="60.0,68.3 62.9,60.7 65.9,58.5 69.1,56.9 72.3,56.4 75.7,58.3 79.6,58.8 83.6,64.1 88.1,66.0 92.9,68.5 97.7,71.4 102.7,75.7 107.9,80.5 113.1,84.2 118.7,88.5 124.8,90.5 130.4,93.4 136.2,96.5 142.0,101.1 147.8,104.5 154.2,107.9 160.1,111.0 166.2,113.2 172.2,115.8 178.4,120.0 185.0,121.2 190.9,122.3 198.2,123.8 205.2,125.2 211.5,126.0 217.9,127.9 224.8,129.1 231.6,129.9 238.1,130.8 244.5,133.0 251.8,134.5 259.1,136.2 265.9,137.3 272.7,138.5 279.1,139.8 285.4,141.4 292.3,143.1 299.2,143.9 305.6,144.8 312.5,146.0 318.7,147.2 325.6,148.0 332.6,148.9 338.9,148.9 345.2,149.5 350.9,150.4 357.0,150.6 363.8,151.8 370.2,151.6 376.4,152.1 382.4,152.8 388.7,153.0 395.0,154.2 401.5,154.5 407.3,155.3 413.4,156.0 419.4,156.7 425.0,156.9 430.7,156.9 435.9,156.7 442.0,156.9 447.3,157.4 452.4,157.4 457.0,158.1 462.2,158.6 466.6,159.1 470.8,159.3 475.4,159.4 479.8,159.6 484.2,160.0 488.6,160.3 492.3,160.8 496.2,161.3 500.4,161.8 504.4,162.2 508.3,162.3 512.0,162.9 515.4,163.2 519.0,163.7 522.7,163.9 525.7,164.0 528.8,164.0 531.4,164.6 533.9,164.9 536.3,165.2 539.0,165.4 541.8,165.6 544.2,165.8 546.5,166.1 549.4,166.4 551.7,166.8 553.9,167.1 556.6,167.6 558.8,168.0 561.1,168.1 563.6,168.5 565.2,168.8 566.9,169.0 568.5,169.2 570.2,169.7 571.8,170.0 573.4,170.2 574.9,170.5 576.0,170.7 577.2,170.7 578.4,170.9 579.7,171.0 580.6,171.0 581.8,171.0 583.0,171.2 584.5,171.6 585.6,171.7 586.5,171.9 587.5,172.1 588.4,172.1 589.2,172.2 590.0,172.4 591.0,172.4 591.8,172.6 592.7,172.7 593.4,172.7 594.0,172.9 594.6,173.1 595.1,173.1 595.8,173.1 596.5,173.3 596.9,173.3 597.3,173.4 597.7,173.6 598.2,173.8 598.6,173.9 598.9,174.1 599.2,174.3 599.6,174.5 600.1,174.6 600.4,174.8 600.8,174.8 601.3,174.8 601.6,174.8 602.0,175.0 602.3,175.1 602.5,175.1 602.7,175.3 602.9,175.3 603.2,175.5 603.4,175.6 603.6,175.6 603.9,175.8 604.1,176.0 604.3,176.2 604.5,176.2 604.8,176.2 605.0,176.3 605.1,176.5 605.2,176.7 605.4,176.8 605.5,176.8 605.6,176.8 605.8,177.0 606.0,177.2 606.1,177.2 606.2,177.4 606.3,177.4 606.4,177.5 606.5,177.5 606.7,177.7 606.8,177.7 606.8,177.9 607.0,177.9 607.1,178.0 607.2,178.0 607.4,178.2 607.4,178.2 607.5,178.2 607.6,178.4 607.6,178.4 607.7,178.4 607.8,178.5 607.8,178.5 607.9,178.5 608.0,178.7 608.1,178.7 608.1,178.7 608.2,178.7 608.2,178.9 608.3,178.9 608.3,178.9 608.4,178.9 608.5,178.9 608.5,179.1 608.6,179.1 608.6,179.1 608.6,179.1 608.6,179.1 608.7,179.1 608.7,179.1 608.7,179.2 608.8,179.2 608.9,179.2 608.9,179.4 608.9,179.4 609.0,179.4 609.0,179.4 609.0,179.4 609.1,179.6 609.1,179.6 609.1,179.6 609.2,179.6 609.3,179.6 609.3,179.7 609.3,179.7 609.3,179.7 609.3,179.7 609.4,179.7 609.4,179.7 609.4,179.7 609.5,179.7 609.5,179.7 609.5,179.9 609.6,179.9 609.6,179.9 609.6,179.9 609.6,179.9 609.6,179.9 609.6,179.9 609.6,179.9 609.6,179.9 609.6,179.9 609.6,179.9 609.7,179.9 609.7,179.9 609.7,180.1 609.7,180.1 609.7,180.1 609.7,180.1 609.8,180.1 609.8,180.1 609.8,180.1 609.8,180.1 609.8,180.1 609.8,180.1 609.8,180.1 609.8,180.1 609.8,180.1 609.8,180.1 609.8,180.1 609.8,180.1 609.8,180.1 609.8,180.1 609.8,180.1 609.8,180.1 609.8,180.1 609.8,180.1 609.8,180.1 609.8,180.1 609.9,180.1 609.9,180.1 609.9,180.1 609.9,180.1 609.9,180.3 609.9,180.3 609.9,180.1 609.9,180.3 609.9,180.3 609.9,180.3 609.9,180.3 609.9,180.3 609.9,180.3 609.9,180.3 609.9,180.3 609.9,180.3 609.9,180.3 609.9,180.3 609.9,180.3 609.9,180.3 609.9,180.3 609.9,180.3 609.9,180.3 610.0,180.3 610.0,180.3 610.0,180.3 610.0,180.3 610.0,180.3 610.0,180.3 610.0,180.3 610.0,180.3 610.0,180.3 610.0,180.3 610.0,180.3 610.0,180.3 610.0,180.3 610.0,180.3 610.0,180.3 610.0,180.3 610.0,180.3 610.0,180.3 610.0,180.3 610.0,180.3 610.0,180.3 610.0,180.3" fill="none" stroke="#4a3aa7" stroke-width="2.4" stroke-linejoin="round" stroke-linecap="round"/>
<circle cx="610.0" cy="180.3" r="4" fill="#4a3aa7"/>
<polyline points="58.0,208.1 58.4,208.4 58.6,208.1 58.9,207.8 59.2,209.0 59.5,209.4 59.8,209.3 60.4,209.4 61.0,207.9 61.4,207.5 61.8,207.6 62.2,207.4 62.5,206.7 63.1,205.1 63.1,205.1 73.4,206.6 75.0,208.7 75.6,209.7 77.1,210.0 79.3,210.3 85.8,212.7 89.8,212.8 93.5,216.9 97.2,217.7 102.6,219.1 107.8,221.0 113.4,221.7 119.5,223.7 125.7,227.0 133.7,227.7 142.2,229.0 149.5,229.6 157.4,228.0 165.2,228.8 177.0,229.2 186.8,230.4 196.1,231.5 209.3,232.6 224.6,234.1 237.2,236.2 250.1,238.1 266.2,240.9 281.9,243.5 298.5,246.3 311.2,248.8 343.3,255.4 356.6,255.5 388.6,260.9 406.3,263.2 424.0,266.6 442.6,269.7 461.1,273.7 477.6,276.4 495.3,278.7 512.6,282.4 529.4,284.1 546.1,288.7 555.7,291.6 563.2,293.8 566.3,295.1 568.9,295.9 570.8,296.6 572.6,297.0 573.5,297.2 575.8,297.9 576.8,298.3 577.7,298.6 579.1,299.1 580.5,299.2 581.5,299.6 582.3,299.8 583.4,300.2 584.3,300.3 585.2,300.7 585.9,300.9 586.3,301.1 587.6,301.5 588.2,301.9 588.8,302.1 590.0,302.4 590.8,302.8 591.4,302.9 591.8,303.0 592.9,303.2 593.7,303.6 594.2,303.8 595.0,304.1 595.4,304.3 595.8,304.4 596.1,304.6 596.4,304.7 596.7,304.8 597.6,305.2 598.1,305.5 598.4,305.6 598.8,305.7 599.1,305.9 599.8,306.3 600.0,306.4 600.8,306.7 601.3,306.9 601.6,307.0 601.9,307.3 602.7,307.7 603.5,308.1 603.6,308.3 603.9,308.4 604.1,308.5 604.2,308.5 604.4,308.6 604.5,308.7 604.6,308.8 604.7,308.9 605.1,309.2 605.4,309.4 605.5,309.4 605.7,309.6 605.8,309.6 605.9,309.7 606.0,309.7 606.3,309.9 606.4,309.9 606.4,310.0 606.5,310.1 606.7,310.2 606.8,310.2 606.9,310.2 606.9,310.3 607.0,310.3 607.1,310.3 607.2,310.3 607.4,310.5 607.4,310.5 607.5,310.5 607.6,310.7 607.7,310.7 607.8,310.7 607.8,310.8 607.9,310.8 607.9,310.8 607.9,310.8 608.0,310.9 608.0,310.9 608.0,310.9 608.0,311.0 608.2,311.0 608.2,311.0 608.2,311.1 608.3,311.1 608.3,311.2 608.4,311.2 608.4,311.2 608.4,311.2 608.4,311.3 608.5,311.3 608.5,311.3 608.6,311.3 608.6,311.4 608.6,311.4 608.7,311.4 608.7,311.4 608.7,311.4 608.8,311.4 608.8,311.4 608.8,311.4 608.9,311.6 608.9,311.6 608.9,311.6 608.9,311.6 608.9,311.6 609.0,311.6 609.1,311.6 609.1,311.8 609.1,311.8 609.1,311.8 609.2,311.8 609.2,311.8 609.2,311.8 609.2,311.8 609.2,311.8 609.3,311.9 609.3,311.9 609.3,311.9 609.3,311.9 609.3,311.9 609.4,311.9 609.4,311.9 609.4,311.9 609.4,311.9 609.4,311.9 609.4,311.9 609.4,311.9 609.4,311.9 609.4,312.0 609.5,312.0 609.5,312.0 609.5,312.0 609.5,312.0 609.5,312.0 609.5,312.0 609.6,312.1 609.6,312.1 609.6,312.1 609.6,312.1 609.6,312.1 609.6,312.1 609.6,312.1 609.6,312.1 609.7,312.1 609.7,312.2 609.7,312.2 609.7,312.2 609.7,312.2 609.7,312.2 609.7,312.2 609.7,312.2 609.7,312.2 609.7,312.2 609.7,312.2 609.7,312.2 609.7,312.2 609.7,312.2 609.8,312.2 609.8,312.2 609.8,312.2 609.8,312.2 609.8,312.2 609.8,312.3 609.8,312.3 609.8,312.3 609.8,312.3 609.8,312.3 609.8,312.3 609.8,312.3 609.8,312.3 609.9,312.4 609.9,312.4 609.9,312.4 609.9,312.4 609.9,312.4 609.9,312.4 609.9,312.4 609.9,312.4 609.9,312.4 609.9,312.4 609.9,312.4 609.9,312.4 609.9,312.4 609.9,312.4 609.9,312.4 609.9,312.4 609.9,312.4 609.9,312.4 609.9,312.4 609.9,312.4 609.9,312.4 609.9,312.4 609.9,312.4 609.9,312.4 609.9,312.4 609.9,312.4 609.9,312.4 609.9,312.4 609.9,312.4 609.9,312.4 609.9,312.4 609.9,312.4 609.9,312.4 609.9,312.4 609.9,312.4 609.9,312.4 609.9,312.4 609.9,312.4 609.9,312.4 609.9,312.4 609.9,312.4 609.9,312.4 609.9,312.4 609.9,312.4 609.9,312.4 609.9,312.4 609.9,312.4 609.9,312.4 609.9,312.4 609.9,312.4 609.9,312.4 609.9,312.4 609.9,312.4 610.0,312.4" fill="none" stroke="#9a998f" stroke-width="2.4" stroke-linejoin="round" stroke-linecap="round"/>
<circle cx="610.0" cy="312.4" r="4" fill="#9a998f"/>
<polyline points="58.5,153.8 59.6,156.7 61.2,153.3 62.2,154.5 63.4,158.4 66.3,168.5 68.4,175.8 71.4,183.5 74.1,198.8 76.5,201.4 78.9,206.9 83.3,212.7 86.9,217.8 90.5,221.5 94.0,223.9 97.0,227.0 100.6,229.9 104.7,232.1 108.3,232.8 111.8,233.3 115.5,234.3 119.1,236.0 122.5,236.7 125.9,237.6 129.8,238.1 133.5,238.9 137.6,239.1 142.5,238.9 146.9,239.8 150.9,240.0 155.4,240.0 159.3,241.0 163.5,241.0 167.9,242.5 172.0,242.5 176.4,243.4 180.6,244.6 184.5,245.6 188.6,246.1 193.0,246.3 197.3,246.8 202.0,247.8 206.6,248.5 211.0,249.0 215.7,249.7 220.0,249.7 224.4,250.0 228.7,250.9 232.8,252.2 236.8,252.8 241.4,253.1 245.6,253.4 249.8,253.9 254.6,254.5 259.2,255.0 264.7,255.3 269.4,255.8 274.6,256.5 279.6,256.8 285.0,257.4 290.2,257.9 295.0,258.6 299.8,259.1 304.7,259.7 310.2,260.4 316.0,261.1 322.0,261.8 329.4,262.5 336.1,262.6 341.9,263.3 348.1,263.8 355.2,264.4 361.1,264.5 367.7,264.7 373.2,265.2 380.2,265.7 386.5,265.7 392.7,266.1 399.5,266.4 405.7,266.4 412.1,266.7 417.9,267.3 425.1,267.6 430.1,267.9 434.4,268.1 441.8,268.4 448.7,269.0 455.3,269.5 461.9,270.0 466.4,270.3 471.6,270.8 478.4,271.3 484.4,271.7 490.8,272.0 496.4,272.7 503.4,273.2 509.8,273.7 515.2,273.9 522.6,274.6 526.1,274.8 531.8,275.1 535.8,275.6 540.5,276.0 544.7,276.3 549.2,276.5 551.6,276.6 554.6,276.8 557.9,277.0 559.9,277.3 562.1,277.5 564.7,277.7 567.4,277.8 569.7,278.0 571.5,278.2 573.5,278.3 574.5,278.3 577.1,278.5 579.0,278.7 580.9,278.9 582.1,279.0 583.3,279.0 587.5,279.4 591.0,279.9 591.8,279.9 592.3,279.9 592.9,280.0 593.4,280.0 594.0,280.2 594.5,280.2 595.1,280.2 595.7,280.4 596.3,280.6 596.9,280.6 597.6,280.7 598.2,280.7 598.6,280.9 599.1,280.9 599.6,281.1 600.1,281.2 600.4,281.2 600.7,281.4 601.0,281.4 601.4,281.4 601.6,281.6 602.0,281.6 602.2,281.8 602.6,281.8 602.9,281.8 603.1,281.8 603.4,281.9 603.6,281.9 603.9,281.9 604.1,281.9 604.5,282.1 604.8,282.1 605.0,282.1 605.3,282.1 605.4,282.3 605.5,282.3 605.8,282.3 605.9,282.3 606.0,282.4 606.0,282.4 606.1,282.4 606.3,282.4 606.5,282.6 606.7,282.6 606.8,282.6 606.9,282.6 607.0,282.6 607.2,282.6 607.3,282.8 607.4,282.8 607.5,282.8 607.5,282.8 607.7,282.8 607.8,282.8 607.9,282.8 608.0,282.8 608.0,282.8 608.1,282.8 608.2,282.8 608.2,282.8 608.3,282.8 608.4,282.9 608.5,282.8 608.5,282.9 608.6,282.9 608.7,282.9 608.7,282.9 608.8,282.9 608.9,282.9 608.9,282.9 609.1,282.9 609.1,282.9 609.2,283.1 609.2,283.1 609.3,283.1 609.3,283.1 609.4,283.1 609.4,283.1 609.6,283.1 609.6,283.1 609.7,283.1 609.7,283.1 609.8,283.1 609.8,283.1 609.9,283.1 609.9,283.1 610.0,283.1" fill="none" stroke="#1baf7a" stroke-width="2.4" stroke-linejoin="round" stroke-linecap="round"/>
<circle cx="610.0" cy="283.1" r="4" fill="#1baf7a"/>
<polyline points="168.1,179.7 189.5,183.9 220.4,186.8 223.6,189.3 257.9,189.4 292.9,191.6 315.0,195.0 346.5,197.5 441.7,210.7 462.6,214.8 511.8,222.4 517.7,224.7 520.9,225.6 525.9,225.3 526.0,225.3 528.5,225.7 528.7,225.9 538.0,228.1 549.1,231.2 554.2,232.9 556.8,233.3 557.6,233.7 559.6,234.2 561.8,234.8 563.3,235.2 565.1,235.7 567.3,236.4 569.4,237.0 571.9,237.7 576.7,239.4 584.1,241.4 592.3,243.7 600.0,246.4 601.9,247.2 602.8,247.7 603.7,248.0 604.2,248.3 605.0,248.7 605.4,249.0 605.8,249.2 606.1,249.3 606.5,249.5 606.8,249.7 607.1,249.9 607.4,250.1 607.7,250.2 607.9,250.3 608.2,250.5 608.3,250.6 608.6,250.8 608.7,250.9 608.8,251.0 609.1,251.1 609.2,251.1 609.2,251.2 609.3,251.3 609.4,251.3 609.4,251.4 609.5,251.4 609.5,251.5 609.6,251.5 609.6,251.5 609.7,251.6 609.7,251.6 609.7,251.6 609.8,251.6 609.8,251.7 609.8,251.7 609.9,251.7 609.9,251.7 609.9,251.8 609.9,251.8 609.9,251.8 609.9,251.8 609.9,251.8 609.9,251.8 610.0,251.8 610.0,251.8 610.0,251.8 610.0,251.8 610.0,251.8 610.0,251.8 610.0,251.8 610.0,251.8 610.0,251.8 610.0,251.8 610.0,251.8 610.0,251.8 610.0,251.9" fill="none" stroke="#2a78d6" stroke-width="2.4" stroke-linejoin="round" stroke-linecap="round"/>
<circle cx="610.0" cy="251.9" r="4" fill="#2a78d6"/>
<text x="618.0" y="184.3" font-size="12" fill="#4a3aa7" text-anchor="start" font-weight="700">+10,3</text>
<text x="618.0" y="255.9" font-size="12" fill="#2a78d6" text-anchor="start" font-weight="700">+1,9</text>
<text x="618.0" y="287.1" font-size="12" fill="#1baf7a" text-anchor="start" font-weight="700">-1,8</text>
<text x="618.0" y="316.4" font-size="12" fill="#9a998f" text-anchor="start" font-weight="700">-5,2</text>
<text x="331.0" y="372.0" font-size="11" fill="#7d7c75" text-anchor="middle" font-weight="400">% apurado</text>
<text x="12.0" y="32.0" font-size="11" fill="#7d7c75" text-anchor="start" font-weight="400">pontos percentuais</text>
</svg>